<svg xmlns="http://www.w3.org/2000/svg" xmlns:xlink="http://www.w3.org/1999/xlink" style="display:none">

  <!-- ic-preventiva: wrench + calendar badge -->
  <symbol id="ic-preventiva" viewBox="0 0 24 24" fill="none">
    <path d="M14.7 6.3a1 1 0 0 0 0 1.4l1.6 1.6a1 1 0 0 0 1.4 0l2.5-2.5a6 6 0 0 1-7.5 7.5l-5.2 5.2a2.12 2.12 0 0 1-3-3l5.2-5.2a6 6 0 0 1 5-5Z" stroke="currentColor" stroke-width="1.75" stroke-linecap="round" stroke-linejoin="round"/>
    <rect x="14" y="2" width="7" height="6" rx="1" stroke="currentColor" stroke-width="1.4" stroke-linecap="round" stroke-linejoin="round"/>
    <line x1="16" y1="4" x2="16" y2="4.01" stroke="currentColor" stroke-width="1.75" stroke-linecap="round"/>
    <line x1="18.5" y1="4" x2="18.5" y2="4.01" stroke="currentColor" stroke-width="1.75" stroke-linecap="round"/>
    <line x1="16" y1="6" x2="18.5" y2="6" stroke="currentColor" stroke-width="1.4" stroke-linecap="round"/>
  </symbol>

  <!-- ic-corretiva: bolt/spark -->
  <symbol id="ic-corretiva" viewBox="0 0 24 24" fill="none">
    <path d="M13 2 L4.09 12.26 H11 L10 22 L20.91 11.74 H14 L13 2Z" stroke="currentColor" stroke-width="1.75" stroke-linecap="round" stroke-linejoin="round"/>
  </symbol>

  <!-- ic-emergencia: clock face with 24h badge -->
  <symbol id="ic-emergencia" viewBox="0 0 24 24" fill="none">
    <circle cx="12" cy="13" r="8" stroke="currentColor" stroke-width="1.75" stroke-linecap="round"/>
    <path d="M12 9v4l2.5 2.5" stroke="currentColor" stroke-width="1.75" stroke-linecap="round" stroke-linejoin="round"/>
    <path d="M4.5 4.5L3 3M19.5 4.5L21 3" stroke="currentColor" stroke-width="1.75" stroke-linecap="round"/>
    <rect x="7" y="1" width="10" height="4" rx="1" stroke="currentColor" stroke-width="1.4" stroke-linecap="round"/>
    <text x="8.5" y="4.2" font-size="2.8" font-family="monospace" fill="currentColor" stroke="none">24h</text>
  </symbol>

  <!-- ic-art: shield with checkmark (ART = Anotação de Responsabilidade Técnica) -->
  <symbol id="ic-art" viewBox="0 0 24 24" fill="none">
    <path d="M12 2L3 6v6c0 5.25 3.75 10.15 9 11.25C17.25 22.15 21 17.25 21 12V6L12 2Z" stroke="currentColor" stroke-width="1.75" stroke-linecap="round" stroke-linejoin="round"/>
    <path d="M8.5 12l2.5 2.5 4.5-4.5" stroke="currentColor" stroke-width="1.75" stroke-linecap="round" stroke-linejoin="round"/>
  </symbol>

  <!-- ic-modernizacao: refresh arrows with upgrade arrow -->
  <symbol id="ic-modernizacao" viewBox="0 0 24 24" fill="none">
    <path d="M1 4v6h6" stroke="currentColor" stroke-width="1.75" stroke-linecap="round" stroke-linejoin="round"/>
    <path d="M23 20v-6h-6" stroke="currentColor" stroke-width="1.75" stroke-linecap="round" stroke-linejoin="round"/>
    <path d="M3.51 9A9 9 0 0 1 20.49 15" stroke="currentColor" stroke-width="1.75" stroke-linecap="round"/>
    <path d="M1 4a9 9 0 0 1 2.51 5" stroke="currentColor" stroke-width="0" stroke-linecap="round"/>
    <path d="M20.49 15A9 9 0 0 1 3.51 9" stroke="currentColor" stroke-width="1.75" stroke-linecap="round"/>
    <path d="M12 7v4M10 9l2-2 2 2" stroke="currentColor" stroke-width="1.5" stroke-linecap="round" stroke-linejoin="round"/>
  </symbol>

  <!-- ic-instalacao: elevator cabin in shaft -->
  <symbol id="ic-instalacao" viewBox="0 0 24 24" fill="none">
    <rect x="6" y="3" width="12" height="14" rx="1.5" stroke="currentColor" stroke-width="1.75" stroke-linecap="round" stroke-linejoin="round"/>
    <path d="M10 10l2-2 2 2M10 13l2 2 2-2" stroke="currentColor" stroke-width="1.5" stroke-linecap="round" stroke-linejoin="round"/>
    <line x1="6" y1="21" x2="18" y2="21" stroke="currentColor" stroke-width="1.75" stroke-linecap="round"/>
    <line x1="12" y1="17" x2="12" y2="21" stroke="currentColor" stroke-width="1.75" stroke-linecap="round"/>
  </symbol>

  <!-- ic-vistoria: clipboard with checkmark -->
  <symbol id="ic-vistoria" viewBox="0 0 24 24" fill="none">
    <path d="M9 5H7a2 2 0 0 0-2 2v13a2 2 0 0 0 2 2h10a2 2 0 0 0 2-2V7a2 2 0 0 0-2-2h-2" stroke="currentColor" stroke-width="1.75" stroke-linecap="round" stroke-linejoin="round"/>
    <rect x="9" y="3" width="6" height="4" rx="1" stroke="currentColor" stroke-width="1.75" stroke-linecap="round" stroke-linejoin="round"/>
    <path d="M8 13l2.5 2.5L16 10" stroke="currentColor" stroke-width="1.75" stroke-linecap="round" stroke-linejoin="round"/>
  </symbol>

  <!-- ic-condominio: residential building (simple block + windows) -->
  <symbol id="ic-condominio" viewBox="0 0 24 24" fill="none">
    <rect x="3" y="7" width="11" height="15" rx="1" stroke="currentColor" stroke-width="1.75" stroke-linecap="round" stroke-linejoin="round"/>
    <rect x="14" y="11" width="7" height="11" rx="1" stroke="currentColor" stroke-width="1.75" stroke-linecap="round" stroke-linejoin="round"/>
    <rect x="5.5" y="9.5" width="2.5" height="2.5" rx="0.5" stroke="currentColor" stroke-width="1.25"/>
    <rect x="9.5" y="9.5" width="2.5" height="2.5" rx="0.5" stroke="currentColor" stroke-width="1.25"/>
    <rect x="5.5" y="14" width="2.5" height="2.5" rx="0.5" stroke="currentColor" stroke-width="1.25"/>
    <rect x="9.5" y="14" width="2.5" height="2.5" rx="0.5" stroke="currentColor" stroke-width="1.25"/>
    <rect x="16" y="13.5" width="2" height="2" rx="0.5" stroke="currentColor" stroke-width="1.25"/>
    <line x1="8.5" y1="19" x2="8.5" y2="22" stroke="currentColor" stroke-width="1.75" stroke-linecap="round"/>
    <line x1="3" y1="22" x2="21" y2="22" stroke="currentColor" stroke-width="1.75" stroke-linecap="round"/>
  </symbol>

  <!-- ic-empresa: office building (tall, grid windows) -->
  <symbol id="ic-empresa" viewBox="0 0 24 24" fill="none">
    <rect x="4" y="3" width="13" height="19" rx="1" stroke="currentColor" stroke-width="1.75" stroke-linecap="round" stroke-linejoin="round"/>
    <path d="M17 8h3v14h-3" stroke="currentColor" stroke-width="1.75" stroke-linecap="round" stroke-linejoin="round"/>
    <rect x="6.5" y="5.5" width="2" height="2" rx="0.4" stroke="currentColor" stroke-width="1.2"/>
    <rect x="10" y="5.5" width="2" height="2" rx="0.4" stroke="currentColor" stroke-width="1.2"/>
    <rect x="13.5" y="5.5" width="1.5" height="2" rx="0.4" stroke="currentColor" stroke-width="1.2"/>
    <rect x="6.5" y="9.5" width="2" height="2" rx="0.4" stroke="currentColor" stroke-width="1.2"/>
    <rect x="10" y="9.5" width="2" height="2" rx="0.4" stroke="currentColor" stroke-width="1.2"/>
    <rect x="13.5" y="9.5" width="1.5" height="2" rx="0.4" stroke="currentColor" stroke-width="1.2"/>
    <rect x="6.5" y="13.5" width="2" height="2" rx="0.4" stroke="currentColor" stroke-width="1.2"/>
    <rect x="10" y="13.5" width="2" height="2" rx="0.4" stroke="currentColor" stroke-width="1.2"/>
    <rect x="9" y="18" width="3" height="4" rx="0.5" stroke="currentColor" stroke-width="1.25"/>
    <line x1="4" y1="22" x2="21" y2="22" stroke="currentColor" stroke-width="1.75" stroke-linecap="round"/>
  </symbol>

  <!-- ic-orgao: government columns (Greek temple) -->
  <symbol id="ic-orgao" viewBox="0 0 24 24" fill="none">
    <line x1="2" y1="22" x2="22" y2="22" stroke="currentColor" stroke-width="1.75" stroke-linecap="round"/>
    <line x1="3" y1="19" x2="21" y2="19" stroke="currentColor" stroke-width="1.75" stroke-linecap="round"/>
    <line x1="6" y1="9" x2="6" y2="19" stroke="currentColor" stroke-width="1.75" stroke-linecap="round"/>
    <line x1="10" y1="9" x2="10" y2="19" stroke="currentColor" stroke-width="1.75" stroke-linecap="round"/>
    <line x1="14" y1="9" x2="14" y2="19" stroke="currentColor" stroke-width="1.75" stroke-linecap="round"/>
    <line x1="18" y1="9" x2="18" y2="19" stroke="currentColor" stroke-width="1.75" stroke-linecap="round"/>
    <line x1="4" y1="9" x2="20" y2="9" stroke="currentColor" stroke-width="1.75" stroke-linecap="round"/>
    <path d="M3 9L12 3l9 6" stroke="currentColor" stroke-width="1.75" stroke-linecap="round" stroke-linejoin="round"/>
  </symbol>

  <!-- ic-construtora: construction crane -->
  <symbol id="ic-construtora" viewBox="0 0 24 24" fill="none">
    <line x1="4" y1="22" x2="4" y2="4" stroke="currentColor" stroke-width="1.75" stroke-linecap="round"/>
    <line x1="4" y1="4" x2="18" y2="4" stroke="currentColor" stroke-width="1.75" stroke-linecap="round"/>
    <line x1="4" y1="4" x2="9" y2="9" stroke="currentColor" stroke-width="1.5" stroke-linecap="round"/>
    <line x1="18" y1="4" x2="14" y2="10" stroke="currentColor" stroke-width="1.5" stroke-linecap="round"/>
    <line x1="14" y1="10" x2="14" y2="16" stroke="currentColor" stroke-width="1.5" stroke-linecap="round"/>
    <rect x="11" y="16" width="6" height="5" rx="0.5" stroke="currentColor" stroke-width="1.5" stroke-linecap="round"/>
    <line x1="2" y1="22" x2="10" y2="22" stroke="currentColor" stroke-width="1.75" stroke-linecap="round"/>
    <circle cx="5" cy="22" r="1" stroke="currentColor" stroke-width="1.25"/>
    <circle cx="9" cy="22" r="1" stroke="currentColor" stroke-width="1.25"/>
  </symbol>

  <!-- ic-rat: document with photo/camera (RAT = Relatório de Atendimento Técnico) -->
  <symbol id="ic-rat" viewBox="0 0 24 24" fill="none">
    <path d="M14 2H6a2 2 0 0 0-2 2v16a2 2 0 0 0 2 2h12a2 2 0 0 0 2-2V8l-6-6Z" stroke="currentColor" stroke-width="1.75" stroke-linecap="round" stroke-linejoin="round"/>
    <path d="M14 2v6h6" stroke="currentColor" stroke-width="1.75" stroke-linecap="round" stroke-linejoin="round"/>
    <rect x="7" y="12" width="10" height="7" rx="1" stroke="currentColor" stroke-width="1.4" stroke-linecap="round"/>
    <circle cx="12" cy="15.5" r="1.75" stroke="currentColor" stroke-width="1.25"/>
    <circle cx="15.5" cy="13.5" r="0.75" fill="currentColor" stroke="none"/>
  </symbol>

  <!-- ic-engrenagem: single gear -->
  <symbol id="ic-engrenagem" viewBox="0 0 24 24" fill="none">
    <path d="M12 15a3 3 0 1 0 0-6 3 3 0 0 0 0 6Z" stroke="currentColor" stroke-width="1.75" stroke-linecap="round" stroke-linejoin="round"/>
    <path d="M19.4 15a1.65 1.65 0 0 0 .33 1.82l.06.06a2 2 0 0 1-2.83 2.83l-.06-.06a1.65 1.65 0 0 0-1.82-.33 1.65 1.65 0 0 0-1 1.51V21a2 2 0 0 1-4 0v-.09A1.65 1.65 0 0 0 9 19.4a1.65 1.65 0 0 0-1.82.33l-.06.06a2 2 0 0 1-2.83-2.83l.06-.06A1.65 1.65 0 0 0 4.68 15a1.65 1.65 0 0 0-1.51-1H3a2 2 0 0 1 0-4h.09A1.65 1.65 0 0 0 4.6 9a1.65 1.65 0 0 0-.33-1.82l-.06-.06a2 2 0 0 1 2.83-2.83l.06.06A1.65 1.65 0 0 0 9 4.68a1.65 1.65 0 0 0 1-1.51V3a2 2 0 0 1 4 0v.09a1.65 1.65 0 0 0 1 1.51 1.65 1.65 0 0 0 1.82-.33l.06-.06a2 2 0 0 1 2.83 2.83l-.06.06A1.65 1.65 0 0 0 19.4 9a1.65 1.65 0 0 0 1.51 1H21a2 2 0 0 1 0 4h-.09a1.65 1.65 0 0 0-1.51 1Z" stroke="currentColor" stroke-width="1.75" stroke-linecap="round" stroke-linejoin="round"/>
  </symbol>

  <!-- ic-check: simple checkmark circle -->
  <symbol id="ic-check" viewBox="0 0 24 24" fill="none">
    <circle cx="12" cy="12" r="9" stroke="currentColor" stroke-width="1.75" stroke-linecap="round"/>
    <path d="M8 12.5l2.5 2.5 5.5-5.5" stroke="currentColor" stroke-width="1.75" stroke-linecap="round" stroke-linejoin="round"/>
  </symbol>

  <!-- ic-phone: telephone handset -->
  <symbol id="ic-phone" viewBox="0 0 24 24" fill="none">
    <path d="M22 16.92v3a2 2 0 0 1-2.18 2 19.79 19.79 0 0 1-8.63-3.07A19.5 19.5 0 0 1 5.12 12.88 19.79 19.79 0 0 1 2.04 4.26 2 2 0 0 1 4 2.02h3a2 2 0 0 1 2 1.72c.127.96.361 1.903.7 2.81a2 2 0 0 1-.45 2.11L8.09 9.91a16 16 0 0 0 6 6l1.27-1.27a2 2 0 0 1 2.11-.45c.907.339 1.85.573 2.81.7A2 2 0 0 1 22 16.92Z" stroke="currentColor" stroke-width="1.75" stroke-linecap="round" stroke-linejoin="round"/>
  </symbol>

  <!-- ic-whatsapp: WhatsApp-style speech bubble with phone inside -->
  <symbol id="ic-whatsapp" viewBox="0 0 24 24" fill="none">
    <path d="M21 11.5a8.38 8.38 0 0 1-.9 3.8 8.5 8.5 0 0 1-7.6 4.7 8.38 8.38 0 0 1-3.8-.9L3 21l1.9-5.7a8.38 8.38 0 0 1-.9-3.8 8.5 8.5 0 0 1 4.7-7.6 8.38 8.38 0 0 1 3.8-.9h.5a8.48 8.48 0 0 1 8 8v.5Z" stroke="currentColor" stroke-width="1.75" stroke-linecap="round" stroke-linejoin="round"/>
    <path d="M9.5 9.5c.2.6.6 1.1.9 1.7.2.3.1.7-.1 1l-.5.7c.4.8.9 1.5 1.6 2 .5.4 1.1.7 1.7.9.3.1.6 0 .8-.2l.6-.6c.3-.3.7-.3 1-.2.5.2 1 .5 1.5.7.2.1.3.3.3.5v1.5c0 .3-.2.5-.5.5-4.5.2-8-3.3-7.8-7.8 0-.3.2-.5.5-.5h1.5c.2 0 .4.1.5.3Z" stroke="currentColor" stroke-width="1.4" stroke-linecap="round" stroke-linejoin="round"/>
  </symbol>

  <!-- ic-arrow-right: simple right arrow -->
  <symbol id="ic-arrow-right" viewBox="0 0 24 24" fill="none">
    <line x1="4" y1="12" x2="20" y2="12" stroke="currentColor" stroke-width="1.75" stroke-linecap="round"/>
    <polyline points="14 6 20 12 14 18" stroke="currentColor" stroke-width="1.75" stroke-linecap="round" stroke-linejoin="round"/>
  </symbol>

  <!-- ic-shaft: elevator shaft with guide rails, cab, and counterweight -->
  <symbol id="ic-shaft" viewBox="0 0 24 24" fill="none">
    <!-- Shaft walls -->
    <rect x="2" y="1" width="20" height="22" rx="1" stroke="currentColor" stroke-width="1.75" stroke-linecap="round" stroke-linejoin="round"/>
    <!-- Left guide rail -->
    <line x1="5.5" y1="2" x2="5.5" y2="23" stroke="currentColor" stroke-width="1.25" stroke-linecap="round"/>
    <!-- Right guide rail -->
    <line x1="18.5" y1="2" x2="18.5" y2="23" stroke="currentColor" stroke-width="1.25" stroke-linecap="round"/>
    <!-- Cabin -->
    <rect x="7" y="10" width="10" height="8" rx="0.75" stroke="currentColor" stroke-width="1.5" stroke-linecap="round" stroke-linejoin="round"/>
    <!-- Cabin door line -->
    <line x1="12" y1="10" x2="12" y2="18" stroke="currentColor" stroke-width="1" stroke-linecap="round"/>
    <!-- Counterweight -->
    <rect x="7.5" y="3" width="3" height="4" rx="0.5" stroke="currentColor" stroke-width="1.25"/>
    <!-- Rope from cabin to counterweight -->
    <line x1="12" y1="3" x2="12" y2="10" stroke="currentColor" stroke-width="1" stroke-linecap="round" stroke-dasharray="1.5 1"/>
    <!-- Rail brackets -->
    <line x1="5.5" y1="7" x2="7" y2="7" stroke="currentColor" stroke-width="1" stroke-linecap="round"/>
    <line x1="18.5" y1="7" x2="17" y2="7" stroke="currentColor" stroke-width="1" stroke-linecap="round"/>
    <line x1="5.5" y1="14" x2="7" y2="14" stroke="currentColor" stroke-width="1" stroke-linecap="round"/>
    <line x1="18.5" y1="14" x2="17" y2="14" stroke="currentColor" stroke-width="1" stroke-linecap="round"/>
  </symbol>

</svg>
